<svg id="Слой_1" data-name="Слой 1" xmlns="http://www.w3.org/2000/svg" viewBox="0 0 1017.16 366.69"><defs><style>.cls-1{fill:#3a5b66;}.cls-2,.cls-3{fill:#fff;}.cls-3{stroke:#fff;stroke-miterlimit:10;stroke-width:2px;}.cls-4{fill:#b3b8bd;}.cls-5{fill:#2e4c59;}.cls-6{fill:#f93;}.cls-7{fill:#848484;}</style></defs><path class="cls-1" d="M214.87,359.2c-15.52,0-31.17-3.07-49.29-6.64C124,344.35,91.07,337.91,65.39,311.62c-13.7-14-23.5-33.2-43-71.43-9.25-18.11-11.17-24.26-12.25-28.6-6.65-26.83.9-50.34,7.57-71.09,5-15.62,13.43-41.77,35.91-68.83,30.5-36.76,67-51.51,81.38-56.14,8.66-2.81,24.79-8,46.25-8h3.3c31,.77,52.77,12,73.86,22.94,28,14.48,50.14,25.91,65.88,50.7,1.82,3.17,10.26,26.86,23,62.73,8.65,24.28,11.57,33.2,13.13,46a135.48,135.48,0,0,1-1.63,45c-8.54,39.45-35.79,63.85-57.63,83.45-18.5,16.57-31.85,28.53-53.88,35.73A102.81,102.81,0,0,1,214.87,359.2Z" transform="translate(0 -0.01)"/><path class="cls-2" d="M181.21,15h3.12c29.22.72,50.26,11.59,70.6,22.1C281.81,51,303.06,62,317.71,84.83c2.16,4.41,10.73,28.47,22.52,61.58,8.89,25,11.3,32.59,12.73,44.34a128.07,128.07,0,0,1-1.51,42.6c-8,37.07-34.23,60.57-55.3,79.44-17.81,16-30.67,27.48-51.2,34.19a94.36,94.36,0,0,1-30.09,4.75c-14.78,0-30.09-3-47.83-6.5C125.1,337,94.81,331,70.76,306.41c-12.91-13.2-22.53-32-41.72-69.6-9.63-18.86-10.9-23.95-11.65-27-6.14-24.76.76-46.23,7.43-67,4.86-15.11,13-40.39,34.54-66.34,29.27-35.25,64.24-49.36,77.91-53.8C145.54,20,160.93,15,181.21,15m0-15C159,0,142.34,5.26,132.65,8.41c-9.19,3-50.58,17.23-84.83,58.48C24.88,94.5,16.05,121.08,10.54,138.22c-7.36,22.91-14.73,46.87-7.71,75.19,1.22,4.89,3.21,11.32,12.85,30.2C35.58,282.55,45.53,302,60,316.86c27.31,28,61.06,34.6,104.1,43.06,18.36,3.61,34.49,6.78,50.73,6.78a109.67,109.67,0,0,0,34.75-5.49c23.53-7.69,37.82-20.5,56.55-37.28,22.07-19.77,50.91-45.61,59.95-87.44A144.4,144.4,0,0,0,367.82,189c-1.65-13.59-4.7-22.87-13.49-47.56-14.5-40.7-21.74-61-23.78-64.26-16.82-26.5-40.47-38.72-68.76-53.34-21.33-11-44.45-23-77.12-23.78h-3.49Z" transform="translate(0 -0.01)"/><path class="cls-3" d="M445.63,163.44a7.29,7.29,0,0,1-4.63-1.59,8.7,8.7,0,0,1-2.91-4.37L408.85,60.35q-1.46-4.8.21-7.63a5.87,5.87,0,0,1,5.46-2.84,7.84,7.84,0,0,1,4.5,1.38,7.63,7.63,0,0,1,2.91,4.29l25.44,88.68h-3.2l23.56-87.81a6.39,6.39,0,0,1,2.61-3.63A7.77,7.77,0,0,1,475,51.35a8.68,8.68,0,0,1,4.44,1.23,5.64,5.64,0,0,1,2.69,3.71l23.69,88h-2.9l25.58-89.4q1.46-4.95,7.42-5c2.71,0,4.46,1,5.23,3.13a11.8,11.8,0,0,1,0,7.34l-29.22,97a10.44,10.44,0,0,1-3,4.43,7.2,7.2,0,0,1-9.3-.07,10.07,10.07,0,0,1-2.84-4.22l-23.4-90.42h3.48l-23.68,90.27a10.44,10.44,0,0,1-3,4.43A6.87,6.87,0,0,1,445.63,163.44Z" transform="translate(0 -0.01)"/><path class="cls-3" d="M583.89,164a43.81,43.81,0,0,1-21.45-5.16,37.72,37.72,0,0,1-14.68-14.25,40.55,40.55,0,0,1-5.31-20.86,42.69,42.69,0,0,1,5-21,36.63,36.63,0,0,1,13.88-14.25,39.75,39.75,0,0,1,20.38-5.16q11.32,0,19.48,5a32.67,32.67,0,0,1,12.43,13.81,45.77,45.77,0,0,1,4.28,20.28A6.08,6.08,0,0,1,616,127a6.65,6.65,0,0,1-4.79,1.81H552.63V117.21h58.15l-6,4.07a31.22,31.22,0,0,0-2.91-13,21.21,21.21,0,0,0-20.2-12.43,26.54,26.54,0,0,0-14.18,3.64,23.32,23.32,0,0,0-8.94,10,32.49,32.49,0,0,0-3,14.32,27.75,27.75,0,0,0,3.63,14.24,26.52,26.52,0,0,0,10,9.89,29.21,29.21,0,0,0,14.69,3.63,27.44,27.44,0,0,0,9.23-1.67,28.52,28.52,0,0,0,7.63-3.85,8.22,8.22,0,0,1,4.72-1.67,6.37,6.37,0,0,1,4.44,1.52,6.91,6.91,0,0,1,2.62,4.8,5.16,5.16,0,0,1-2.33,4.51,40.19,40.19,0,0,1-12.28,6.39A44,44,0,0,1,583.89,164Z" transform="translate(0 -0.01)"/><path class="cls-3" d="M682.89,164a39.42,39.42,0,0,1-20.36-5.31,38.84,38.84,0,0,1-14.24-14.47,41.8,41.8,0,0,1-5.38-20.64V57.35A7.12,7.12,0,0,1,645,52a7.39,7.39,0,0,1,12.72,5.38V96.6A37.43,37.43,0,0,1,670,86.9a36.75,36.75,0,0,1,34.82,1.75A37.78,37.78,0,0,1,718.12,103,42.79,42.79,0,0,1,723,123.61a40.44,40.44,0,0,1-5.3,20.64A39.13,39.13,0,0,1,682.88,164Zm0-13.09a24.75,24.75,0,0,0,13.23-3.59,25.74,25.74,0,0,0,9.23-9.81,28.71,28.71,0,0,0,3.41-14,28.15,28.15,0,0,0-3.41-14,25.52,25.52,0,0,0-35.62-9.66,25.19,25.19,0,0,0-9.23,9.66,28.55,28.55,0,0,0-3.35,14,29.16,29.16,0,0,0,3.35,14,24.87,24.87,0,0,0,22.39,13.37Z" transform="translate(0 -0.01)"/><path class="cls-3" d="M445.63,315.35a7.27,7.27,0,0,1-4.65-1.6,8.61,8.61,0,0,1-2.91-4.36l-29.22-97.11q-1.46-4.8.21-7.63a5.87,5.87,0,0,1,5.46-2.84,7.84,7.84,0,0,1,4.5,1.38,7.6,7.6,0,0,1,2.91,4.29l25.44,88.68h-3.2l23.56-87.81a6.39,6.39,0,0,1,2.61-3.63,7.8,7.8,0,0,1,4.66-1.47,8.68,8.68,0,0,1,4.44,1.23,5.64,5.64,0,0,1,2.69,3.71l23.69,88h-2.9l25.58-89.4q1.46-5,7.42-4.95c2.71,0,4.46,1,5.23,3.13a11.8,11.8,0,0,1,0,7.34l-29.22,97a10.44,10.44,0,0,1-3,4.43,7.2,7.2,0,0,1-9.3-.07,10,10,0,0,1-2.83-4.32L473.4,219h3.48l-23.69,90.28a10.44,10.44,0,0,1-3,4.43A6.81,6.81,0,0,1,445.63,315.35Z" transform="translate(0 -0.01)"/><path class="cls-3" d="M582.58,315.92a41.06,41.06,0,0,1-20.79-5.16,37.4,37.4,0,0,1-14.18-14.25,45,45,0,0,1,0-41.87,37.43,37.43,0,0,1,14.18-14.29,44.16,44.16,0,0,1,41.43,0A37.46,37.46,0,0,1,617.4,254.6a45.31,45.31,0,0,1,.07,41.87,37,37,0,0,1-14.1,14.25A41.07,41.07,0,0,1,582.58,315.92Zm0-13.09A25.47,25.47,0,0,0,596,299.35a24.31,24.31,0,0,0,9-9.6,29.39,29.39,0,0,0,3.27-14.1A29.84,29.84,0,0,0,605,261.47a24.31,24.31,0,0,0-9.09-9.67,27.39,27.39,0,0,0-26.75,0,24.76,24.76,0,0,0-9.16,9.67,29.28,29.28,0,0,0-3.34,14.18,29,29,0,0,0,3.34,14.1,24.89,24.89,0,0,0,9.2,9.6A25.42,25.42,0,0,0,582.58,302.83Z" transform="translate(0 -0.01)"/><path class="cls-3" d="M658.17,315.48a7.21,7.21,0,0,1-7.41-7V243.23a7.12,7.12,0,0,1,2.11-5.38,7.39,7.39,0,0,1,12.72,5.38v64.84a7.34,7.34,0,0,1-2,5.3A7.13,7.13,0,0,1,658.17,315.48Zm59.75,0a7.21,7.21,0,0,1-7.41-7V272.35q0-8.28-3-13.52a19.23,19.23,0,0,0-8.22-7.78,26.52,26.52,0,0,0-11.85-2.54,24.35,24.35,0,0,0-11,2.47,20.7,20.7,0,0,0-7.85,6.62,16.11,16.11,0,0,0-2.9,9.52h-9.16A30.53,30.53,0,0,1,661,250.76a32.09,32.09,0,0,1,12-11.41,35.38,35.38,0,0,1,17.3-4.22,37.2,37.2,0,0,1,18,4.29A30.91,30.91,0,0,1,720.8,252q4.58,8.28,4.58,20.35v35.77a7.21,7.21,0,0,1-7,7.41H718Z" transform="translate(0 -0.01)"/><path class="cls-3" d="M792.07,315.92a39.79,39.79,0,0,1-20.43-5.31,39.24,39.24,0,0,1-14.39-14.47,40.35,40.35,0,0,1-5.31-20.64,42.78,42.78,0,0,1,4.87-20.57,37.66,37.66,0,0,1,13.31-14.39,34.94,34.94,0,0,1,19-5.31,35.74,35.74,0,0,1,28.06,13.23V209.21a7.12,7.12,0,0,1,2.11-5.38A7.39,7.39,0,0,1,832,209.21V275.5a40.35,40.35,0,0,1-5.31,20.64A39.12,39.12,0,0,1,792,315.92Zm0-13.09a24.75,24.75,0,0,0,13.23-3.56,25.2,25.2,0,0,0,9.16-9.81,29.29,29.29,0,0,0,3.34-14,28.81,28.81,0,0,0-3.34-14,25.6,25.6,0,0,0-9.16-9.66,26.17,26.17,0,0,0-26.39,0,25.74,25.74,0,0,0-9.3,9.66,28,28,0,0,0-3.42,14,28.61,28.61,0,0,0,3.42,14,25.42,25.42,0,0,0,9.3,9.81A24.89,24.89,0,0,0,792.07,302.83Z" transform="translate(0 -0.01)"/><path class="cls-3" d="M901.68,315.92a43.77,43.77,0,0,1-21.44-5.16,37.75,37.75,0,0,1-14.69-14.25,40.64,40.64,0,0,1-5.3-20.86,42.91,42.91,0,0,1,5-21,36.6,36.6,0,0,1,13.9-14.3,39.74,39.74,0,0,1,20.35-5.16q11.34,0,19.48,5A32.67,32.67,0,0,1,931.41,254a45.67,45.67,0,0,1,4.29,20.35,6.08,6.08,0,0,1-1.89,4.58,6.66,6.66,0,0,1-4.8,1.81H870.42V269.1h58.16l-6,4.07a31.22,31.22,0,0,0-2.91-13,21.23,21.23,0,0,0-20.21-12.43,26.52,26.52,0,0,0-14.13,3.61,23.46,23.46,0,0,0-9,10,32.58,32.58,0,0,0-3,14.32A27.69,27.69,0,0,0,877,289.89a26.45,26.45,0,0,0,10,9.89,29.17,29.17,0,0,0,14.68,3.63,27.44,27.44,0,0,0,9.23-1.67,28.52,28.52,0,0,0,7.63-3.85,8.26,8.26,0,0,1,4.73-1.67,6.39,6.39,0,0,1,4.43,1.52,6.91,6.91,0,0,1,2.62,4.8,5.15,5.15,0,0,1-2.32,4.51,40.36,40.36,0,0,1-12.29,6.39A43.84,43.84,0,0,1,901.68,315.92Z" transform="translate(0 -0.01)"/><path class="cls-3" d="M968,315.35a7.46,7.46,0,0,1-5.38-1.81,7.24,7.24,0,0,1-1.89-5.45v-65a6.59,6.59,0,0,1,5.83-7.27,6.93,6.93,0,0,1,1.44,0,7.43,7.43,0,0,1,5.45,1.82c1.22,1.21,1.82,3,1.82,5.45v65a6.51,6.51,0,0,1-7.27,7.26Zm-.14-49.72A29.05,29.05,0,0,1,972.15,250a31.41,31.41,0,0,1,11.55-11,32.2,32.2,0,0,1,16-4.07q8.71,0,13,2.83t3.27,6.76a5.6,5.6,0,0,1-1.67,3.13,5.74,5.74,0,0,1-2.84,1.38,8.38,8.38,0,0,1-3.49-.14,41,41,0,0,0-16.72-.3,22.67,22.67,0,0,0-11.7,6,15.11,15.11,0,0,0-4.29,11Z" transform="translate(0 -0.01)"/><path class="cls-4" d="M207.6,289.2a24.43,24.43,0,1,1-7.16-17.28A24.44,24.44,0,0,1,207.6,289.2Z" transform="translate(0 -0.01)"/><path class="cls-5" d="M183.16,317a27.84,27.84,0,1,1,19.66-8.16A27.84,27.84,0,0,1,183.16,317Zm0-48.88a21.1,21.1,0,1,0,14.9,6.18A21.11,21.11,0,0,0,183.16,268.14Z" transform="translate(0 -0.01)"/><path class="cls-1" d="M207.6,289.2a24.43,24.43,0,1,1-7.16-17.28A24.44,24.44,0,0,1,207.6,289.2Z" transform="translate(0 -0.01)"/><path class="cls-2" d="M183.16,317a27.84,27.84,0,1,1,19.66-8.16A27.84,27.84,0,0,1,183.16,317Zm0-48.88a21.1,21.1,0,1,0,14.9,6.18A21.11,21.11,0,0,0,183.16,268.14Z" transform="translate(0 -0.01)"/><path class="cls-6" d="M249,167.11A65.88,65.88,0,1,0,137.3,214.36a58.16,58.16,0,0,1,13.33,19.86,62.58,62.58,0,0,1,4.57,23.56v1.35h55.92v-1.35a60.83,60.83,0,0,1,4.95-23.94,65.11,65.11,0,0,1,13.77-20.29A65.63,65.63,0,0,0,249,167.11Z" transform="translate(0 -0.01)"/><path class="cls-2" d="M211.12,262.47H155.2a3.37,3.37,0,0,1-3.36-3.36v-1.33a59,59,0,0,0-4.42-22.48A54.89,54.89,0,0,0,135,216.76a69.31,69.31,0,1,1,98-1.59l-.74.75a61.6,61.6,0,0,0-13.15,19.42,57.29,57.29,0,0,0-4.58,22.44v1.35a3.35,3.35,0,0,1-3.36,3.36h0Zm-52.58-6.71h49.25a64,64,0,0,1,5.45-23.91,68.27,68.27,0,0,1,14.21-20.67,62.49,62.49,0,1,0-88.37.2l.56.55a61.61,61.61,0,0,1,13.59,19.84A65.43,65.43,0,0,1,158.54,255.76Z" transform="translate(0 -0.01)"/><path class="cls-7" d="M210.46,267.09h-54.6a6.25,6.25,0,0,1-6.25-6.25v-1a6.25,6.25,0,0,1,6.25-6.25h54.6a6.25,6.25,0,0,1,6.26,6.25v1A6.26,6.26,0,0,1,210.46,267.09Z" transform="translate(0 -0.01)"/><path class="cls-2" d="M209.94,270.45H156.38a10.14,10.14,0,1,1,0-20.27h53.56a10.14,10.14,0,1,1,0,20.27ZM156.38,256.9a3.41,3.41,0,1,0,0,6.82h53.56a3.41,3.41,0,0,0,0-6.82H156.38Z" transform="translate(0 -0.01)"/><path class="cls-7" d="M210.46,280.64h-54.6a6.26,6.26,0,0,1-6.25-6.25v-1a6.25,6.25,0,0,1,6.25-6.25h54.6a6.25,6.25,0,0,1,6.26,6.25v1a6.25,6.25,0,0,1-6.26,6.25Z" transform="translate(0 -0.01)"/><path class="cls-2" d="M209.94,284H156.38a10.14,10.14,0,0,1,0-20.28h53.56a10.14,10.14,0,0,1,0,20.28Zm-53.56-13.55a3.41,3.41,0,0,0-.22,6.82h53.78a3.41,3.41,0,0,0,0-6.82Z" transform="translate(0 -0.01)"/><path class="cls-7" d="M210.46,294.18h-54.6a6.25,6.25,0,0,1-6.25-6.25v-1a6.25,6.25,0,0,1,6.25-6.25h54.6a6.25,6.25,0,0,1,6.26,6.25v1A6.25,6.25,0,0,1,210.46,294.18Z" transform="translate(0 -0.01)"/><path class="cls-2" d="M209.94,297.55H156.38a10.14,10.14,0,0,1,0-20.28h53.56a10.14,10.14,0,0,1,0,20.28ZM156.38,284a3.41,3.41,0,0,0,0,6.82h53.56a3.41,3.41,0,0,0,0-6.82H156.38Z" transform="translate(0 -0.01)"/><path class="cls-2" d="M263.36,246.81a3.34,3.34,0,0,1-2.38-1l-6.25-6.25-6.25-6.25a3.37,3.37,0,0,1,4.76-4.76h0l6.25,6.26,6.25,6.25a3.36,3.36,0,0,1,0,4.76,3.28,3.28,0,0,1-2.4,1Z" transform="translate(0 -0.01)"/><path class="cls-2" d="M118.16,101.6a3.33,3.33,0,0,1-2.38-1l-6.25-6.25-6.25-6.25A3.36,3.36,0,0,1,108,83.36h0l6.26,6.25,6.25,6.25a3.36,3.36,0,0,1-2.38,5.74Z" transform="translate(0 -0.01)"/><path class="cls-2" d="M296,168h-17.7a3.37,3.37,0,1,1-.22-6.73H296a3.37,3.37,0,0,1,0,6.73Z" transform="translate(0 -0.01)"/><path class="cls-2" d="M90.67,168H73a3.37,3.37,0,0,1,0-6.73H90.67a3.37,3.37,0,1,1,.22,6.73Z" transform="translate(0 -0.01)"/><path class="cls-2" d="M250.86,101.6a3.33,3.33,0,0,1-2.38-1,3.36,3.36,0,0,1,0-4.75h0l6.25-6.25L261,83.36a3.36,3.36,0,0,1,4.75,4.76l-6.25,6.25-6.25,6.25a3.33,3.33,0,0,1-2.38,1Z" transform="translate(0 -0.01)"/><path class="cls-2" d="M105.65,246.81a3.36,3.36,0,0,1-2.37-5.74l6.25-6.25,6.25-6.26a3.37,3.37,0,0,1,4.76,4.76h0l-6.25,6.25L108,245.82a3.32,3.32,0,0,1-2.38,1Z" transform="translate(0 -0.01)"/><path class="cls-2" d="M184.51,74.12a3.35,3.35,0,0,1-3.36-3.35h0V53.06a3.36,3.36,0,1,1,6.72,0h0v17.7a3.36,3.36,0,0,1-3.35,3.36Z" transform="translate(0 -0.01)"/><path class="cls-2" d="M151.18,81.5A3.34,3.34,0,0,1,148,79.33L146.35,75l-1.69-4.38a3.35,3.35,0,1,1,6.26-2.41l1.69,4.38,1.69,4.38a3.36,3.36,0,0,1-1.93,4.35,3,3,0,0,1-.6.17A2.88,2.88,0,0,1,151.18,81.5Z" transform="translate(0 -0.01)"/><path class="cls-2" d="M277.81,209.34a3.23,3.23,0,0,1-.69-.07,3.28,3.28,0,0,1-.67-.22l-3.31-1.47-3.3-1.44a3.36,3.36,0,0,1,2.73-6.14l3.3,1.46,3.3,1.47a3.36,3.36,0,0,1-1.36,6.44Z" transform="translate(0 -0.01)"/><path class="cls-2" d="M98.21,129.68a3.23,3.23,0,0,1-.69-.07,3.09,3.09,0,0,1-.67-.22l-3.5-1.55-3.5-1.56a3.35,3.35,0,1,1,2.72-6.13l3.5,1.55,3.5,1.56a3.36,3.36,0,0,1-1.36,6.44Z" transform="translate(0 -0.01)"/><path class="cls-2" d="M272.2,134.16a3.37,3.37,0,0,1-1.22-6.5l3.78-1.45,3.78-1.44a3.36,3.36,0,0,1,4.28,4.5A3.3,3.3,0,0,1,281,131l-3.78,1.45-3.77,1.44a2.64,2.64,0,0,1-.61.17A3.05,3.05,0,0,1,272.2,134.16Z" transform="translate(0 -0.01)"/><path class="cls-2" d="M89.28,204.68a3.37,3.37,0,0,1-1.22-6.51l3.58-1.38,3.57-1.37a3.36,3.36,0,1,1,2.41,6.28h0l-3.56,1.37-3.58,1.38a3.78,3.78,0,0,1-.6.17A3.05,3.05,0,0,1,89.28,204.68Z" transform="translate(0 -0.01)"/><path class="cls-2" d="M223.24,80.64a4,4,0,0,1-.69-.07,3.36,3.36,0,0,1-2.38-4.66h0l1.32-3,1.33-3A3.37,3.37,0,0,1,229,72.66l-1.33,3-1.33,3A3.33,3.33,0,0,1,225,80.11,3.38,3.38,0,0,1,223.24,80.64Z" transform="translate(0 -0.01)"/><path class="cls-2" d="M154.66,198.63a2.41,2.41,0,0,1-1.55-.53,2.94,2.94,0,0,1-1-1.45l-9.72-32.3a3.15,3.15,0,0,1,.08-2.54,1.93,1.93,0,0,1,1.81-.94,2.58,2.58,0,0,1,1.5.46,2.51,2.51,0,0,1,1,1.43l8.47,29.49h-1.07l7.84-29.2a2,2,0,0,1,.87-1.21,2.59,2.59,0,0,1,1.54-.49,2.84,2.84,0,0,1,1.48.42,1.86,1.86,0,0,1,.89,1.23l7.88,29.25h-1l8.51-29.74a2.26,2.26,0,0,1,2.46-1.64,1.65,1.65,0,0,1,1.74,1,3.89,3.89,0,0,1,0,2.44L176.7,196.6a3.4,3.4,0,0,1-1,1.48,2.4,2.4,0,0,1-3.09,0,3.19,3.19,0,0,1-.94-1.4l-7.79-30.07h1.16l-7.88,30a3.58,3.58,0,0,1-1,1.48A2.28,2.28,0,0,1,154.66,198.63Z" transform="translate(0 -0.01)"/><path class="cls-1" d="M194.86,198.63a2.41,2.41,0,0,1-1.55-.53,2.86,2.86,0,0,1-1-1.45l-9.72-32.3a3.16,3.16,0,0,1,.07-2.54,1.93,1.93,0,0,1,1.81-.94,2.58,2.58,0,0,1,1.5.46,2.52,2.52,0,0,1,1,1.43l8.46,29.49h-1.06l7.83-29.2a2.13,2.13,0,0,1,.87-1.21,2.62,2.62,0,0,1,1.55-.49,2.83,2.83,0,0,1,1.47.42A1.84,1.84,0,0,1,207,163l7.88,29.25h-1l8.51-29.74a2.27,2.27,0,0,1,2.47-1.64,1.65,1.65,0,0,1,1.74,1,4,4,0,0,1,0,2.44l-9.72,32.25a3.58,3.58,0,0,1-1,1.48,2.3,2.3,0,0,1-1.53.55,2.28,2.28,0,0,1-1.57-.58,3.28,3.28,0,0,1-.94-1.4l-7.78-30.07h1.16l-7.89,30a3.4,3.4,0,0,1-1,1.48A2.26,2.26,0,0,1,194.86,198.63Z" transform="translate(0 -0.01)"/></svg>