<svg id="Слой_1" data-name="Слой 1" xmlns="http://www.w3.org/2000/svg" viewBox="0 0 998 991.66"><defs><style>.cls-1{fill:#3a5b66}.cls-2{fill:#fff}.cls-6{fill:#848484}</style></defs><path class="cls-1" d="M581.05 979.16c-42.71 0-85.36-8.38-134.75-18.1-113.92-22.39-203.89-40.06-275-112.91-37.87-38.76-64.56-91-117.72-195.07-25.4-49.71-30.61-66.29-33.76-79-18.53-74.7 2.27-139.41 20.62-196.5 13.73-42.75 36.75-114.4 98.48-188.75 83.87-101 184.34-141.5 223.64-154.23C386.4 26.88 430.77 12.5 490 12.5c3 0 6.1 0 9.13.11 85.48 2.13 145.29 33 203.12 62.91 76.8 39.68 137.45 71 181.14 139.84 4.78 7.57 28 72.66 63.05 171.2 23.6 66.28 31.58 90.65 35.89 126 5.34 43.85 3.82 85.68-4.53 124.32-23.55 109.17-98.22 176.06-158.21 229.82-50.71 45.43-87.34 78.25-148.47 98.22a285.57 285.57 0 0 1-90.07 14.24Z"/><path class="cls-2" d="M490 0v25c2.92 0 5.89 0 8.82.11 82.61 2 141.12 32.28 197.69 61.52 75 38.76 134.31 69.4 176.17 135.19 5.28 9.7 27.88 73.16 62 169C957.9 456 965.76 480 969.91 514.07c5.18 42.45 3.72 82.88-4.34 120.16-22.69 105.21-95.67 170.6-154.32 223.16-49.57 44.41-85.38 76.5-144 95.65a269.61 269.61 0 0 1-86.19 13.62c-41.49 0-83.6-8.28-132.36-17.86-58.09-11.43-108.26-21.29-153.07-37.44-47.53-17.13-84.2-40-115.41-71.94-36.54-37.41-62.94-89.08-115.53-192-24.81-48.59-29.92-64.87-32.77-76.35-7.73-31.15-8.94-63-3.71-97.38 5-32.84 15.59-65.8 24.1-92.28 13.48-41.93 36-112.1 96.23-184.58C230.31 98.36 328.15 58.89 366.41 46.49 389.59 39 432.74 25 490 25V0m0 0c-59.95 0-105.1 14.21-131.32 22.71-24.82 8.05-136.74 46.61-229.37 158.12-62 74.68-85.9 146.57-100.8 192.91C8.6 435.71-11.34 500.5 7.66 577.09c3.28 13.24 8.67 30.62 34.75 81.68 53.82 105.33 80.72 158 119.92 198.12 73.86 75.6 165.13 93.55 281.53 116.44 49.63 9.75 93.26 18.33 137.19 18.33a296.52 296.52 0 0 0 94-14.83c63.63-20.78 102.29-55.42 152.93-100.8 59.68-53.47 137.68-123.35 162.12-236.48 12.77-59.1 6.84-111.1 4.72-128.47-4.48-36.75-12.73-61.84-36.5-128.6-39.24-110.1-58.84-165.14-64.32-173.82C848.48 137 784.53 104 708 64.42 650.34 34.61 587.83 2.31 499.48.12Q494.7 0 490 0Z"/><path d="M552.85 742.64a57 57 0 1 1-16.69-40.3 57 57 0 0 1 16.69 40.3Z" fill="#b3b8bd"/><path d="M495.86 807.5a64.9 64.9 0 1 1 45.83-19 64.91 64.91 0 0 1-45.83 19Zm0-114a49.2 49.2 0 1 0 34.74 14.41 49.21 49.21 0 0 0-34.74-14.39Z" fill="#2e4c59"/><path class="cls-1" d="M552.85 742.64a57 57 0 1 1-16.69-40.3 57 57 0 0 1 16.69 40.3Z"/><path class="cls-2" d="M495.86 807.5a64.9 64.9 0 1 1 45.83-19 64.91 64.91 0 0 1-45.83 19Zm0-114a49.2 49.2 0 1 0 34.74 14.41 49.21 49.21 0 0 0-34.74-14.39Z"/><path d="M649.45 457.92A153.63 153.63 0 1 0 388.9 568.1a135.65 135.65 0 0 1 31.1 46.33 145.84 145.84 0 0 1 10.67 54.92v3.15h130.4v-3.15a141.47 141.47 0 0 1 11.53-55.8 151.85 151.85 0 0 1 32.1-47.32 153.05 153.05 0 0 0 44.75-108.31Z" fill="#f93"/><path class="cls-2" d="M561.07 680.3H430.66a7.84 7.84 0 0 1-7.84-7.84v-3.11A137.89 137.89 0 0 0 412.51 617a127.9 127.9 0 0 0-29.07-43.24A161.63 161.63 0 1 1 612 570l-1.74 1.77A143.69 143.69 0 0 0 579.59 617a133.65 133.65 0 0 0-10.67 52.32v3.16a7.83 7.83 0 0 1-7.83 7.84Zm-122.64-15.66h114.86A149.55 149.55 0 0 1 566 608.9a159.54 159.54 0 0 1 33.14-48.21 145.73 145.73 0 1 0-206.09.46l1.32 1.3a143.37 143.37 0 0 1 31.7 46.25 153.16 153.16 0 0 1 12.36 55.94Z"/><path class="cls-6" d="M559.52 691.07H432.2a14.57 14.57 0 0 1-14.58-14.57v-2.44a14.58 14.58 0 0 1 14.58-14.58h127.32a14.59 14.59 0 0 1 14.59 14.58v2.44a14.59 14.59 0 0 1-14.59 14.57Z"/><path class="cls-2" d="M558.31 698.92h-124.9a23.65 23.65 0 0 1 0-47.29h124.9a23.65 23.65 0 1 1 0 47.29Zm-124.9-31.6a8 8 0 0 0 0 15.91h124.9a8 8 0 0 0 0-15.91h-124.9Z"/><path class="cls-6" d="M559.52 722.67H432.2a14.58 14.58 0 0 1-14.58-14.57v-2.43a14.58 14.58 0 0 1 14.58-14.58h127.32a14.58 14.58 0 0 1 14.59 14.58v2.43a14.58 14.58 0 0 1-14.59 14.58Z"/><path class="cls-2" d="M558.31 730.51h-124.9a23.64 23.64 0 0 1 0-47.28h124.9a23.64 23.64 0 0 1 0 47.28Zm-124.9-31.59a8 8 0 0 0-.51 15.9h125.41a8 8 0 0 0 0-15.9Z"/><path class="cls-6" d="M559.52 754.26H432.2a14.59 14.59 0 0 1-14.58-14.59v-2.42a14.58 14.58 0 0 1 14.58-14.58h127.32a14.59 14.59 0 0 1 14.59 14.58v2.42a14.59 14.59 0 0 1-14.59 14.59Z"/><path class="cls-2" d="M558.31 762.11h-124.9a23.65 23.65 0 0 1 0-47.29h124.9a23.65 23.65 0 0 1 0 47.29Zm-124.9-31.6a8 8 0 0 0 0 15.9h124.9a8 8 0 1 0 0-15.9h-124.9ZM682.89 643.78a7.86 7.86 0 0 1-5.55-2.3l-14.58-14.57-14.58-14.58a7.85 7.85 0 0 1 11.1-11.1l14.58 14.58 14.58 14.58a7.81 7.81 0 0 1-5.55 13.39ZM344.27 305.17a7.83 7.83 0 0 1-5.55-2.3l-14.57-14.58-14.58-14.58a7.84 7.84 0 1 1 11.09-11.09l14.58 14.58 14.58 14.58a7.84 7.84 0 0 1-5.55 13.39ZM759.06 459.9h-41.28a7.85 7.85 0 0 1-.52-15.69h41.8a7.85 7.85 0 0 1 0 15.69ZM280.18 459.9h-41.24a7.85 7.85 0 0 1 0-15.69h41.24a7.85 7.85 0 0 1 .51 15.69ZM653.73 305.17a7.85 7.85 0 0 1-5.55-13.39l14.58-14.58 14.59-14.58a7.84 7.84 0 0 1 11.09 11.09l-14.58 14.58-14.58 14.58a7.83 7.83 0 0 1-5.55 2.3ZM315.11 643.78a7.84 7.84 0 0 1-5.54-13.39l14.58-14.58 14.57-14.58a7.85 7.85 0 1 1 11.1 11.1l-14.58 14.58-14.58 14.57a7.76 7.76 0 0 1-5.55 2.3ZM499 241.08a7.83 7.83 0 0 1-7.84-7.83V192a7.84 7.84 0 1 1 15.68 0v41.28a7.84 7.84 0 0 1-7.82 7.84ZM421.27 258.28a7.82 7.82 0 0 1-7.32-5L410 243l-3.93-10.22a7.83 7.83 0 1 1 14.61-5.61l3.93 10.22 3.94 10.21a7.84 7.84 0 0 1-4.49 10.14 7.45 7.45 0 0 1-1.4.39 7.28 7.28 0 0 1-1.39.15ZM716.57 556.4a7.89 7.89 0 0 1-1.6-.16 8.72 8.72 0 0 1-1.57-.51l-7.71-3.42-7.7-3.37a7.84 7.84 0 0 1 6.36-14.32l7.7 3.42 7.71 3.41a7.84 7.84 0 0 1-3.19 15ZM297.75 370.64a7.83 7.83 0 0 1-1.6-.17 7.47 7.47 0 0 1-1.58-.51l-8.16-3.62-8.16-3.62a7.82 7.82 0 0 1 .4-14.47 7.89 7.89 0 0 1 6 .16l8.16 3.62 8.16 3.63a7.85 7.85 0 0 1-3.18 15ZM703.48 381.08a7.85 7.85 0 0 1-2.83-15.16l8.82-3.37 8.8-3.37a7.84 7.84 0 0 1 10 10.5 7.76 7.76 0 0 1-4.35 4.14l-8.8 3.37-8.8 3.37a7.77 7.77 0 0 1-1.41.39 7.5 7.5 0 0 1-1.43.13ZM276.92 545.53a7.85 7.85 0 0 1-2.83-15.17l8.33-3.21 8.33-3.21a7.84 7.84 0 0 1 5.64 14.64l-8.33 3.21-8.33 3.21a9.37 9.37 0 0 1-1.4.4 8.4 8.4 0 0 1-1.41.13ZM589.32 256.27a7.75 7.75 0 0 1-1.6-.16 8 8 0 0 1-1.59-.52 7.85 7.85 0 0 1-4-10.35l3.09-7 3.09-7a7.85 7.85 0 0 1 14.32 6.37l-3.1 7-3.09 7a7.81 7.81 0 0 1-7.14 4.66ZM428.21 532.18a5.73 5.73 0 0 1-3.67-1.27 6.78 6.78 0 0 1-2.29-3.44l-23.05-76.58c-.76-2.53-.71-4.53.17-6a4.59 4.59 0 0 1 4.3-2.24 6.2 6.2 0 0 1 3.56 1.09 6 6 0 0 1 2.29 3.38L429.58 517h-2.52l18.58-69.25a5.07 5.07 0 0 1 2.06-2.87 6.17 6.17 0 0 1 3.67-1.14 6.83 6.83 0 0 1 3.5 1 4.46 4.46 0 0 1 2.12 2.92L475.68 517h-2.3l20.18-70.51q1.14-3.9 5.85-3.9c2.14 0 3.51.82 4.13 2.46a9.37 9.37 0 0 1 0 5.8l-23.05 76.47a8.3 8.3 0 0 1-2.35 3.5 5.66 5.66 0 0 1-7.34-.06 7.94 7.94 0 0 1-2.23-3.33l-18.46-71.31h2.75l-18.69 71.2a8.3 8.3 0 0 1-2.35 3.5 5.4 5.4 0 0 1-3.61 1.36Z"/><path class="cls-1" d="M523.55 532.18a5.73 5.73 0 0 1-3.67-1.27 6.85 6.85 0 0 1-2.3-3.44l-23-76.58c-.77-2.53-.71-4.53.17-6a4.59 4.59 0 0 1 4.3-2.24 6.15 6.15 0 0 1 3.55 1.09 6 6 0 0 1 2.3 3.38L524.92 517h-2.52l18.6-69.21a5.13 5.13 0 0 1 2.07-2.87 6.17 6.17 0 0 1 3.67-1.14 6.79 6.79 0 0 1 3.49 1 4.4 4.4 0 0 1 2.12 2.92L571 517h-2.29l20.18-70.51q1.14-3.9 5.85-3.9 3.21 0 4.12 2.46a9.23 9.23 0 0 1 0 5.8l-23 76.47a8.3 8.3 0 0 1-2.35 3.5 5.66 5.66 0 0 1-7.34-.06 7.85 7.85 0 0 1-2.23-3.33l-18.47-71.31h2.76l-18.69 71.2a8.3 8.3 0 0 1-2.35 3.5 5.4 5.4 0 0 1-3.64 1.36Z"/></svg>