<svg id="Слой_1" data-name="Слой 1" xmlns="http://www.w3.org/2000/svg" viewBox="0 0 998 991.66"><defs><style>.cls-1{fill:#3a5b66;}.cls-2{fill:#fff;}.cls-3{fill:#b3b8bd;}.cls-4{fill:#2e4c59;}.cls-5{fill:#f93;}.cls-6{fill:#848484;}</style></defs><path class="cls-1" d="M581.05,979.16c-42.71,0-85.36-8.38-134.75-18.1C332.38,938.67,242.41,921,171.3,848.15c-37.87-38.76-64.56-91-117.72-195.07-25.4-49.71-30.61-66.29-33.76-79-18.53-74.7,2.27-139.41,20.62-196.5,13.73-42.75,36.75-114.4,98.48-188.75,83.87-101,184.34-141.5,223.64-154.23C386.4,26.88,430.77,12.5,490,12.5c3,0,6.1,0,9.13.11,85.48,2.13,145.29,33,203.12,62.91,76.8,39.68,137.45,71,181.14,139.84,4.78,7.57,28,72.66,63.05,171.2,23.6,66.28,31.58,90.65,35.89,126,5.34,43.85,3.82,85.68-4.53,124.32C954.25,746.05,879.58,812.94,819.59,866.7c-50.71,45.43-87.34,78.25-148.47,98.22A285.57,285.57,0,0,1,581.05,979.16Z" transform="translate(0)"/><path class="cls-2" d="M490,0V25c2.92,0,5.89,0,8.82.11,82.61,2,141.12,32.28,197.69,61.52,75,38.76,134.31,69.4,176.17,135.19,5.28,9.7,27.88,73.16,62,169C957.9,456,965.76,480,969.91,514.07c5.18,42.45,3.72,82.88-4.34,120.16-22.69,105.21-95.67,170.6-154.32,223.16-49.57,44.41-85.38,76.5-144,95.65a269.61,269.61,0,0,1-86.19,13.62c-41.49,0-83.6-8.28-132.36-17.86-58.09-11.43-108.26-21.29-153.07-37.44-47.53-17.13-84.2-40-115.41-71.94-36.54-37.41-62.94-89.08-115.53-192-24.81-48.59-29.92-64.87-32.77-76.35-7.73-31.15-8.94-63-3.71-97.38,5-32.84,15.59-65.8,24.1-92.28,13.48-41.93,36-112.1,96.23-184.58C230.31,98.36,328.15,58.89,366.41,46.49,389.59,39,432.74,25,490,25V0m0,0C430.05,0,384.9,14.21,358.68,22.71c-24.82,8.05-136.74,46.61-229.37,158.12-62,74.68-85.9,146.57-100.8,192.91C8.6,435.71-11.34,500.5,7.66,577.09c3.28,13.24,8.67,30.62,34.75,81.68,53.82,105.33,80.72,158,119.92,198.12,73.86,75.6,165.13,93.55,281.53,116.44,49.63,9.75,93.26,18.33,137.19,18.33a296.52,296.52,0,0,0,94-14.83c63.63-20.78,102.29-55.42,152.93-100.8,59.68-53.47,137.68-123.35,162.12-236.48,12.77-59.1,6.84-111.1,4.72-128.47-4.48-36.75-12.73-61.84-36.5-128.6C919.08,272.38,899.48,217.34,894,208.66,848.48,137,784.53,104,708,64.42,650.34,34.61,587.83,2.31,499.48.12Q494.7,0,490,0Z" transform="translate(0)"/><path class="cls-3" d="M552.85,742.64a57,57,0,1,1-16.69-40.3A57,57,0,0,1,552.85,742.64Z" transform="translate(0)"/><path class="cls-4" d="M495.86,807.5a64.9,64.9,0,1,1,45.83-19A64.91,64.91,0,0,1,495.86,807.5Zm0-114a49.2,49.2,0,1,0,34.74,14.41A49.21,49.21,0,0,0,495.86,693.52Z" transform="translate(0)"/><path class="cls-1" d="M552.85,742.64a57,57,0,1,1-16.69-40.3A57,57,0,0,1,552.85,742.64Z" transform="translate(0)"/><path class="cls-2" d="M495.86,807.5a64.9,64.9,0,1,1,45.83-19A64.91,64.91,0,0,1,495.86,807.5Zm0-114a49.2,49.2,0,1,0,34.74,14.41A49.21,49.21,0,0,0,495.86,693.52Z" transform="translate(0)"/><path class="cls-5" d="M649.45,457.92A153.63,153.63,0,1,0,388.9,568.1,135.65,135.65,0,0,1,420,614.43a145.84,145.84,0,0,1,10.67,54.92v3.15H561.07v-3.15a141.47,141.47,0,0,1,11.53-55.8,151.85,151.85,0,0,1,32.1-47.32A153.05,153.05,0,0,0,649.45,457.92Z" transform="translate(0)"/><path class="cls-2" d="M561.07,680.3H430.66a7.84,7.84,0,0,1-7.84-7.84v-3.11A137.89,137.89,0,0,0,412.51,617a127.9,127.9,0,0,0-29.07-43.24A161.63,161.63,0,1,1,612,570l-1.74,1.77A143.69,143.69,0,0,0,579.59,617a133.65,133.65,0,0,0-10.67,52.32v3.16a7.83,7.83,0,0,1-7.83,7.84h0ZM438.43,664.64H553.29A149.55,149.55,0,0,1,566,608.9a159.54,159.54,0,0,1,33.14-48.21,145.73,145.73,0,1,0-206.09.46l1.32,1.3a143.37,143.37,0,0,1,31.7,46.25A153.16,153.16,0,0,1,438.43,664.64Z" transform="translate(0)"/><path class="cls-6" d="M559.52,691.07H432.2a14.57,14.57,0,0,1-14.58-14.57v-2.44a14.58,14.58,0,0,1,14.58-14.58H559.52a14.59,14.59,0,0,1,14.59,14.58v2.44A14.59,14.59,0,0,1,559.52,691.07Z" transform="translate(0)"/><path class="cls-2" d="M558.31,698.92H433.41a23.65,23.65,0,0,1,0-47.29h124.9a23.65,23.65,0,1,1,0,47.29Zm-124.9-31.6a8,8,0,0,0,0,15.91h124.9a8,8,0,0,0,0-15.91H433.41Z" transform="translate(0)"/><path class="cls-6" d="M559.52,722.67H432.2a14.58,14.58,0,0,1-14.58-14.57v-2.43a14.58,14.58,0,0,1,14.58-14.58H559.52a14.58,14.58,0,0,1,14.59,14.58v2.43a14.58,14.58,0,0,1-14.59,14.58Z" transform="translate(0)"/><path class="cls-2" d="M558.31,730.51H433.41a23.64,23.64,0,0,1,0-47.28h124.9a23.64,23.64,0,0,1,0,47.28Zm-124.9-31.59a8,8,0,0,0-.51,15.9H558.31a8,8,0,0,0,0-15.9Z" transform="translate(0)"/><path class="cls-6" d="M559.52,754.26H432.2a14.59,14.59,0,0,1-14.58-14.59v-2.42a14.58,14.58,0,0,1,14.58-14.58H559.52a14.59,14.59,0,0,1,14.59,14.58v2.42A14.59,14.59,0,0,1,559.52,754.26Z" transform="translate(0)"/><path class="cls-2" d="M558.31,762.11H433.41a23.65,23.65,0,0,1,0-47.29h124.9a23.65,23.65,0,0,1,0,47.29Zm-124.9-31.6a8,8,0,0,0,0,15.9h124.9a8,8,0,1,0,0-15.9H433.41Z" transform="translate(0)"/><path class="cls-2" d="M682.89,643.78a7.86,7.86,0,0,1-5.55-2.3l-14.58-14.57-14.58-14.58a7.85,7.85,0,0,1,11.1-11.1h0l14.58,14.58,14.58,14.58a7.81,7.81,0,0,1-5.55,13.39Z" transform="translate(0)"/><path class="cls-2" d="M344.27,305.17a7.83,7.83,0,0,1-5.55-2.3l-14.57-14.58-14.58-14.58a7.84,7.84,0,1,1,11.09-11.09h0l14.58,14.58,14.58,14.58a7.84,7.84,0,0,1-5.55,13.39Z" transform="translate(0)"/><path class="cls-2" d="M759.06,459.9H717.78a7.85,7.85,0,0,1-.52-15.69h41.8a7.85,7.85,0,0,1,0,15.69Z" transform="translate(0)"/><path class="cls-2" d="M280.18,459.9H238.94a7.85,7.85,0,0,1,0-15.69h41.24a7.85,7.85,0,0,1,.51,15.69Z" transform="translate(0)"/><path class="cls-2" d="M653.73,305.17a7.85,7.85,0,0,1-5.55-13.39h0l14.58-14.58,14.59-14.58a7.84,7.84,0,0,1,11.09,11.09l-14.58,14.58-14.58,14.58a7.83,7.83,0,0,1-5.55,2.3Z" transform="translate(0)"/><path class="cls-2" d="M315.11,643.78a7.84,7.84,0,0,1-5.54-13.39l14.58-14.58,14.57-14.58a7.85,7.85,0,1,1,11.1,11.1h0l-14.58,14.58-14.58,14.57a7.76,7.76,0,0,1-5.55,2.3Z" transform="translate(0)"/><path class="cls-2" d="M499,241.08a7.83,7.83,0,0,1-7.84-7.83h0V192a7.84,7.84,0,1,1,15.68,0h0v41.28a7.84,7.84,0,0,1-7.82,7.84Z" transform="translate(0)"/><path class="cls-2" d="M421.27,258.28a7.82,7.82,0,0,1-7.32-5L410,243l-3.93-10.22a7.83,7.83,0,1,1,14.61-5.61l3.93,10.22,3.94,10.21a7.84,7.84,0,0,1-4.49,10.14,7.45,7.45,0,0,1-1.4.39A7.28,7.28,0,0,1,421.27,258.28Z" transform="translate(0)"/><path class="cls-2" d="M716.57,556.4a7.89,7.89,0,0,1-1.6-.16,8.72,8.72,0,0,1-1.57-.51l-7.71-3.42-7.7-3.37a7.84,7.84,0,0,1,6.36-14.32l7.7,3.42,7.71,3.41a7.84,7.84,0,0,1-3.19,15Z" transform="translate(0)"/><path class="cls-2" d="M297.75,370.64a7.83,7.83,0,0,1-1.6-.17,7.47,7.47,0,0,1-1.58-.51l-8.16-3.62-8.16-3.62a7.82,7.82,0,0,1,.4-14.47,7.89,7.89,0,0,1,6,.16l8.16,3.62,8.16,3.63a7.85,7.85,0,0,1-3.18,15Z" transform="translate(0)"/><path class="cls-2" d="M703.48,381.08a7.85,7.85,0,0,1-2.83-15.16l8.82-3.37,8.8-3.37a7.84,7.84,0,0,1,10,10.5,7.76,7.76,0,0,1-4.35,4.14l-8.8,3.37-8.8,3.37a7.77,7.77,0,0,1-1.41.39A7.5,7.5,0,0,1,703.48,381.08Z" transform="translate(0)"/><path class="cls-2" d="M276.92,545.53a7.85,7.85,0,0,1-2.83-15.17l8.33-3.21,8.33-3.21a7.84,7.84,0,0,1,5.64,14.64h0l-8.33,3.21L279.73,545a9.37,9.37,0,0,1-1.4.4A8.4,8.4,0,0,1,276.92,545.53Z" transform="translate(0)"/><path class="cls-2" d="M589.32,256.27a7.75,7.75,0,0,1-1.6-.16,8,8,0,0,1-1.59-.52,7.85,7.85,0,0,1-4-10.35h0l3.09-7,3.09-7a7.85,7.85,0,0,1,14.32,6.37l-3.1,7-3.09,7a7.81,7.81,0,0,1-7.14,4.66Z" transform="translate(0)"/><path class="cls-2" d="M437.32,526.41a5,5,0,0,1-3.2-1.1,6,6,0,0,1-2-3L412,455.58q-1-3.29.15-5.24a4,4,0,0,1,3.75-1.95,5.45,5.45,0,0,1,3.1.95,5.22,5.22,0,0,1,2,3l17.49,60.94h-2.2l16.18-60.34a4.48,4.48,0,0,1,1.8-2.5,5.34,5.34,0,0,1,3.2-1,5.87,5.87,0,0,1,3,.85,3.83,3.83,0,0,1,1.85,2.55l16.29,60.44h-2l17.58-61.44c.67-2.27,2.36-3.4,5.1-3.4,1.86,0,3.06.72,3.59,2.15a8,8,0,0,1,0,5l-20.08,66.64a7.07,7.07,0,0,1-2.05,3,4.65,4.65,0,0,1-3.14,1.15,4.76,4.76,0,0,1-3.25-1.19,6.91,6.91,0,0,1-1.95-2.9L456.4,460.18h2.4l-16.29,62a7.07,7.07,0,0,1-2.05,3A4.65,4.65,0,0,1,437.32,526.41Z" transform="translate(0)"/><path class="cls-1" d="M520.39,526.41a5,5,0,0,1-3.2-1.1,6,6,0,0,1-2-3l-20.08-66.74q-1-3.29.15-5.24a4,4,0,0,1,3.75-1.95,5.45,5.45,0,0,1,3.1.95,5.22,5.22,0,0,1,2,3l17.49,60.94h-2.2l16.18-60.34a4.48,4.48,0,0,1,1.8-2.5,5.34,5.34,0,0,1,3.2-1,5.87,5.87,0,0,1,3,.85,3.83,3.83,0,0,1,1.85,2.55l16.29,60.44h-2l17.58-61.44c.67-2.27,2.36-3.4,5.1-3.4,1.86,0,3.06.72,3.59,2.15a8,8,0,0,1,0,5l-20.08,66.64a7.07,7.07,0,0,1-2.05,3,4.67,4.67,0,0,1-3.14,1.15,4.76,4.76,0,0,1-3.25-1.19,6.91,6.91,0,0,1-2-2.9l-16.08-62.14h2.4l-16.29,62a7.07,7.07,0,0,1-2.05,3A4.65,4.65,0,0,1,520.39,526.41Z" transform="translate(0)"/></svg>